HIERARCHY
ROOT Root
{
  OFFSET 0.0 0.0 0.0
  CHANNELS 6 Xposition Yposition Zposition Zrotation Yrotation Xrotation
  JOINT Hips
  {
    OFFSET 0.0 100.0 0.0
    CHANNELS 6 Xposition Yposition Zposition Zrotation Yrotation Xrotation
    JOINT Spine1
    {
      OFFSET -0.013727 5.003763 -0.053727
      CHANNELS 3 Zrotation Yrotation Xrotation
      JOINT Spine2
      {
        OFFSET -0.0 7.125301 -0.029825
        CHANNELS 3 Zrotation Yrotation Xrotation
        JOINT Chest
        {
          OFFSET -1e-06 7.550063 -0.815971
          CHANNELS 3 Zrotation Yrotation Xrotation
          JOINT Neck1
          {
            OFFSET -0.181677 26.311295 -0.553348
            CHANNELS 3 Zrotation Yrotation Xrotation
            JOINT Neck2
            {
              OFFSET -3e-06 7.709397 2.302585
              CHANNELS 3 Zrotation Yrotation Xrotation
              JOINT Head
              {
                OFFSET -5e-06 6.128916 1.953709
                CHANNELS 3 Zrotation Yrotation Xrotation
                JOINT HeadEnd
                {
                  OFFSET 0.003598 16.065403 -1.835379
                  CHANNELS 3 Zrotation Yrotation Xrotation
                }
                JOINT Jaw
                {
                  OFFSET 0.002637 0.475592 3.094941
                  CHANNELS 3 Zrotation Yrotation Xrotation
                }
                JOINT LeftEye
                {
                  OFFSET 3.206381 5.380205 7.586883
                  CHANNELS 3 Zrotation Yrotation Xrotation
                }
                JOINT RightEye
                {
                  OFFSET -3.22244 5.361869 7.558234
                  CHANNELS 3 Zrotation Yrotation Xrotation
                }
              }
            }
          }
          JOINT LeftShoulder
          {
            OFFSET 1.621652 23.237164 5.113413
            CHANNELS 3 Zrotation Yrotation Xrotation
            JOINT LeftArm
            {
              OFFSET 14.919846 2e-06 -5.502326
              CHANNELS 3 Zrotation Yrotation Xrotation
              JOINT LeftForeArm
              {
                OFFSET 28.739307 0.0 -0.002588
                CHANNELS 3 Zrotation Yrotation Xrotation
                JOINT LeftHand
                {
                  OFFSET 27.093981 -1e-06 0.002609
                  CHANNELS 3 Zrotation Yrotation Xrotation
                  JOINT LeftHandThumb1
                  {
                    OFFSET 2.276482 -1.392045 3.191413
                    CHANNELS 3 Zrotation Yrotation Xrotation
                    JOINT LeftHandThumb2
                    {
                      OFFSET 4.012836 -1.828127 1.641654
                      CHANNELS 3 Zrotation Yrotation Xrotation
                      JOINT LeftHandThumb3
                      {
                        OFFSET 2.798515 0.0 -3e-06
                        CHANNELS 3 Zrotation Yrotation Xrotation
                        JOINT LeftHandThumbEnd
                        {
                          OFFSET 3.180793 -4e-06 4e-06
                          CHANNELS 3 Zrotation Yrotation Xrotation
                        }
                      }
                    }
                  }
                  JOINT LeftHandIndex1
                  {
                    OFFSET 3.247555 -0.531998 2.296169
                    CHANNELS 3 Zrotation Yrotation Xrotation
                    JOINT LeftHandIndex2
                    {
                      OFFSET 6.364578 0.01206 0.1786
                      CHANNELS 3 Zrotation Yrotation Xrotation
                      JOINT LeftHandIndex3
                      {
                        OFFSET 3.662364 0.0 0.0
                        CHANNELS 3 Zrotation Yrotation Xrotation
                        JOINT LeftHandIndex4
                        {
                          OFFSET 2.329242 4e-06 4e-06
                          CHANNELS 3 Zrotation Yrotation Xrotation
                          JOINT LeftHandIndexEnd
                          {
                            OFFSET 2.759615 -0.180537 -0.113024
                            CHANNELS 3 Zrotation Yrotation Xrotation
                          }
                        }
                      }
                    }
                  }
                  JOINT LeftHandMiddle1
                  {
                    OFFSET 3.163495 0.240981 1.000332
                    CHANNELS 3 Zrotation Yrotation Xrotation
                    JOINT LeftHandMiddle2
                    {
                      OFFSET 6.19078 -0.259278 -1.002548
                      CHANNELS 3 Zrotation Yrotation Xrotation
                      JOINT LeftHandMiddle3
                      {
                        OFFSET 4.35652 -4e-06 -1e-06
                        CHANNELS 3 Zrotation Yrotation Xrotation
                        JOINT LeftHandMiddle4
                        {
                          OFFSET 2.996877 -8e-06 0.0
                          CHANNELS 3 Zrotation Yrotation Xrotation
                          JOINT LeftHandMiddleEnd
                          {
                            OFFSET 2.304287 -0.294569 -0.031741
                            CHANNELS 3 Zrotation Yrotation Xrotation
                          }
                        }
                      }
                    }
                  }
                  JOINT LeftHandRing1
                  {
                    OFFSET 2.882643 -0.053652 -0.322543
                    CHANNELS 3 Zrotation Yrotation Xrotation
                    JOINT LeftHandRing2
                    {
                      OFFSET 5.854541 -0.486202 -1.373841
                      CHANNELS 3 Zrotation Yrotation Xrotation
                      JOINT LeftHandRing3
                      {
                        OFFSET 4.350578 0.0 3e-06
                        CHANNELS 3 Zrotation Yrotation Xrotation
                        JOINT LeftHandRing4
                        {
                          OFFSET 2.651321 7e-06 2e-06
                          CHANNELS 3 Zrotation Yrotation Xrotation
                          JOINT LeftHandRingEnd
                          {
                            OFFSET 1.936105 0.077687 -7.1e-05
                            CHANNELS 3 Zrotation Yrotation Xrotation
                          }
                        }
                      }
                    }
                  }
                  JOINT LeftHandPinky1
                  {
                    OFFSET 2.8655 -0.310005 -1.600378
                    CHANNELS 3 Zrotation Yrotation Xrotation
                    JOINT LeftHandPinky2
                    {
                      OFFSET 5.087849 -1.331141 -1.77123
                      CHANNELS 3 Zrotation Yrotation Xrotation
                      JOINT LeftHandPinky3
                      {
                        OFFSET 3.070974 4e-06 0.0
                        CHANNELS 3 Zrotation Yrotation Xrotation
                        JOINT LeftHandPinky4
                        {
                          OFFSET 1.549672 0.0 1e-06
                          CHANNELS 3 Zrotation Yrotation Xrotation
                          JOINT LeftHandPinkyEnd
                          {
                            OFFSET 1.944893 -0.157802 0.057219
                            CHANNELS 3 Zrotation Yrotation Xrotation
                          }
                        }
                      }
                    }
                  }
                }
              }
            }
          }
          JOINT RightShoulder
          {
            OFFSET -1.380118 23.180309 5.214158
            CHANNELS 3 Zrotation Yrotation Xrotation
            JOINT RightArm
            {
              OFFSET -15.037196 1.2e-05 -5.545604
              CHANNELS 3 Zrotation Yrotation Xrotation
              JOINT RightForeArm
              {
                OFFSET -28.736639 2e-06 -0.002597
                CHANNELS 3 Zrotation Yrotation Xrotation
                JOINT RightHand
                {
                  OFFSET -27.133619 -0.0 0.002613
                  CHANNELS 3 Zrotation Yrotation Xrotation
                  JOINT RightHandThumb1
                  {
                    OFFSET -2.274032 -1.383988 3.163127
                    CHANNELS 3 Zrotation Yrotation Xrotation
                    JOINT RightHandThumb2
                    {
                      OFFSET -4.011429 -1.827466 1.640914
                      CHANNELS 3 Zrotation Yrotation Xrotation
                      JOINT RightHandThumb3
                      {
                        OFFSET -2.794935 -4e-06 -3e-06
                        CHANNELS 3 Zrotation Yrotation Xrotation
                        JOINT RightHandThumbEnd
                        {
                          OFFSET -3.183852 4e-06 1e-06
                          CHANNELS 3 Zrotation Yrotation Xrotation
                        }
                      }
                    }
                  }
                  JOINT RightHandIndex1
                  {
                    OFFSET -3.253266 -0.520057 2.282866
                    CHANNELS 3 Zrotation Yrotation Xrotation
                    JOINT RightHandIndex2
                    {
                      OFFSET -6.341917 0.012471 0.178266
                      CHANNELS 3 Zrotation Yrotation Xrotation
                      JOINT RightHandIndex3
                      {
                        OFFSET -3.654871 -8e-06 -0.0
                        CHANNELS 3 Zrotation Yrotation Xrotation
                        JOINT RightHandIndex4
                        {
                          OFFSET -2.327586 0.0 1e-06
                          CHANNELS 3 Zrotation Yrotation Xrotation
                          JOINT RightHandIndexEnd
                          {
                            OFFSET -2.76179 -0.180656 -0.113078
                            CHANNELS 3 Zrotation Yrotation Xrotation
                          }
                        }
                      }
                    }
                  }
                  JOINT RightHandMiddle1
                  {
                    OFFSET -3.168106 0.246593 1.00103
                    CHANNELS 3 Zrotation Yrotation Xrotation
                    JOINT RightHandMiddle2
                    {
                      OFFSET -6.180828 -0.258836 -1.000895
                      CHANNELS 3 Zrotation Yrotation Xrotation
                      JOINT RightHandMiddle3
                      {
                        OFFSET -4.348901 0.0 -0.0
                        CHANNELS 3 Zrotation Yrotation Xrotation
                        JOINT RightHandMiddle4
                        {
                          OFFSET -3.00024 -4e-06 -2e-06
                          CHANNELS 3 Zrotation Yrotation Xrotation
                          JOINT RightHandMiddleEnd
                          {
                            OFFSET -2.30252 -0.29437 -0.031706
                            CHANNELS 3 Zrotation Yrotation Xrotation
                          }
                        }
                      }
                    }
                  }
                  JOINT RightHandRing1
                  {
                    OFFSET -2.88569 -0.067952 -0.308858
                    CHANNELS 3 Zrotation Yrotation Xrotation
                    JOINT RightHandRing2
                    {
                      OFFSET -5.854198 -0.48613 -1.373731
                      CHANNELS 3 Zrotation Yrotation Xrotation
                      JOINT RightHandRing3
                      {
                        OFFSET -4.33881 -4e-06 -0.0
                        CHANNELS 3 Zrotation Yrotation Xrotation
                        JOINT RightHandRing4
                        {
                          OFFSET -2.654903 -4e-06 4e-06
                          CHANNELS 3 Zrotation Yrotation Xrotation
                          JOINT RightHandRingEnd
                          {
                            OFFSET -1.933568 0.077527 -5.2e-05
                            CHANNELS 3 Zrotation Yrotation Xrotation
                          }
                        }
                      }
                    }
                  }
                  JOINT RightHandPinky1
                  {
                    OFFSET -2.866425 -0.342796 -1.584145
                    CHANNELS 3 Zrotation Yrotation Xrotation
                    JOINT RightHandPinky2
                    {
                      OFFSET -5.091371 -1.332055 -1.772385
                      CHANNELS 3 Zrotation Yrotation Xrotation
                      JOINT RightHandPinky3
                      {
                        OFFSET -3.062664 -4e-06 1e-06
                        CHANNELS 3 Zrotation Yrotation Xrotation
                        JOINT RightHandPinky4
                        {
                          OFFSET -1.546529 4e-06 -2e-06
                          CHANNELS 3 Zrotation Yrotation Xrotation
                          JOINT RightHandPinkyEnd
                          {
                            OFFSET -1.945119 -0.157718 0.057211
                            CHANNELS 3 Zrotation Yrotation Xrotation
                          }
                        }
                      }
                    }
                  }
                }
              }
            }
          }
        }
      }
    }
    JOINT LeftLeg
    {
      OFFSET 10.043214 -8.434526 2.595655
      CHANNELS 3 Zrotation Yrotation Xrotation
      JOINT LeftShin
      {
        OFFSET -1e-06 -43.221752 -0.802913
        CHANNELS 3 Zrotation Yrotation Xrotation
        JOINT LeftFoot
        {
          OFFSET 1e-06 -42.155094 -3.481523
          CHANNELS 3 Zrotation Yrotation Xrotation
          JOINT LeftToeBase
          {
            OFFSET 0.0 -5.059472 13.231529
            CHANNELS 3 Zrotation Yrotation Xrotation
            JOINT LeftToeEnd
            {
              OFFSET -0.009607 -1.647619 6.513017
              CHANNELS 3 Zrotation Yrotation Xrotation
            }
          }
        }
      }
    }
    JOINT RightLeg
    {
      OFFSET -10.047278 -8.29526 2.620317
      CHANNELS 3 Zrotation Yrotation Xrotation
      JOINT RightShin
      {
        OFFSET 1e-06 -43.362206 -0.805556
        CHANNELS 3 Zrotation Yrotation Xrotation
        JOINT RightFoot
        {
          OFFSET 2e-06 -42.117393 -3.478398
          CHANNELS 3 Zrotation Yrotation Xrotation
          JOINT RightToeBase
          {
            OFFSET -0.0 -5.079609 13.284196
            CHANNELS 3 Zrotation Yrotation Xrotation
            JOINT RightToeEnd
            {
              OFFSET 0.009532 -1.634378 6.460591
              CHANNELS 3 Zrotation Yrotation Xrotation
            }
          }
        }
      }
    }
  }
}
MOTION
Frames: 4
Frame Time: 0.03333333333333333
0.685609 0.0 -0.070205 0.0 0.720573 0.0 0.0 98.930138 0.0 0.187072 0.028026 -6.928599 -0.017052 0.0869 1.629742 -0.493306 0.565362 -4.028384 -4.27722 -1.654188 7.851512 5.072888 0.065563 11.663911 0.040866 1.405928 -3.554968 0.363834 1.314159 -11.610493 7.7e-05 -2.3e-05 6e-06 -0.000938 -0.012675 0.011393 0.606021 -3.751114 -10.534823 -0.607514 3.72089 -10.46529 -14.690625 -4.778015 10.914566 -55.513859 -7.688069 17.724483 -0.264964 -24.173658 0.086716 -1.638677 0.529727 -1.545211 -5.882106 9.861288 0.702593 -10.936873 -0.360576 7.156207 1e-06 8.774829 -1e-06 -16.227257 17.93856 5.870041 -1.844033 2.498504 -2.507279 -10.163603 4.678945 4.62111 -20.976027 -5e-06 2e-06 -21.22629 2.451698 -3.594 2e-06 -6e-06 -2e-06 -1.362682 2.240799 -0.746322 -21.334921 0.584908 3.008325 -13.821218 -3e-06 0.0 -23.887178 -0.249079 -0.839483 -60.644505 2.468644 -1.395328 -0.294025 1.67969 0.833257 -14.218214 0.093215 1.300581 -34.212063 -0.287564 0.967173 -20.033222 0.964536 1.212843 -0.0 1e-06 -2e-06 -3.440389 0.788234 0.501655 -15.928189 -3.16731 2.999707 -6.338828 -0.0 -1e-06 -18.123453 3.648185 -4.905672 -3e-06 1e-06 -2e-06 6.377059 9.329808 6.529518 8.076285 1.349834 -62.494408 -173.26442 69.144897 -174.76738 -36.991417 5.7595 16.138201 2.243542 -5.255043 -3.18016 14.282898 -0.826595 6.952507 -1e-06 -12.690617 -2e-06 16.218821 -17.225166 3.213109 1.665667 -1.955923 -2.878301 4.727801 -4.170591 4.993926 11.020533 2e-06 -1e-06 12.109059 -3.735719 -2.866787 1e-06 0.0 0.0 1.291986 -1.928552 -1.49809 14.800138 0.567469 3.865611 14.242579 -1.341739 -6.660663 19.631979 0.143926 -0.648245 48.970901 -1.156742 -6.209517 0.353028 -1.511152 -0.03194 20.222803 3.684313 2.316633 18.787285 4e-06 -1e-06 10.751633 -0.479868 1.397907 -2e-06 -0.0 1e-06 3.273809 0.305948 -0.580111 21.486828 11.830385 2.266138 8.162932 1e-06 -0.0 18.399099 -3.798989 -4.940581 2e-06 0.0 -1e-06 8.987663 11.927588 5.299896 -0.007565 -0.274906 10.603874 -9.728018 2.790225 -7.369932 1.601275 -1.99991 -0.797473 0.0 -1e-06 2e-06 -10.364396 -9.92671 3.352479 -0.06556 0.087142 10.365331 11.099337 -5.601254 -5.350886 -1.431004 1.07146 -0.506868 0.0 0.0 -1e-06 
0.688813 0.0 -0.03733 0.0 0.531965 0.0 0.0 98.940514 0.0 0.183865 0.026071 -6.887365 0.056109 0.095222 1.519914 -0.467731 0.539994 -4.057474 -4.375383 -1.656953 7.912141 4.846169 0.21772 11.83102 0.059512 1.559796 -3.562354 0.325631 1.481235 -11.529882 7.7e-05 -2.2e-05 6e-06 -0.002939 0.000717 0.017225 0.604917 -3.742451 -10.557663 -0.610909 3.741261 -10.482453 -14.861022 -4.861662 10.906682 -55.321426 -7.339106 17.627337 -0.247227 -24.001749 0.081234 -1.647032 0.612476 -0.874907 -5.882104 9.861283 0.702591 -10.936868 -0.360575 7.156203 0.0 8.774822 0.0 -16.181578 17.935289 5.90125 -1.844031 2.498504 -2.507277 -10.163597 4.678943 4.62111 -20.976017 -4e-06 2e-06 -21.226282 2.451695 -3.593998 0.0 -6e-06 -2e-06 -1.362681 2.240798 -0.746324 -21.334908 0.584908 3.008323 -13.82121 -4e-06 2e-06 -23.887161 -0.24908 -0.839481 -60.652557 2.448886 -1.374843 -0.294025 1.679688 0.833256 -14.218205 0.093215 1.300582 -34.212044 -0.287562 0.967171 -20.033209 0.964535 1.212845 0.0 0.0 -1e-06 -3.440388 0.788233 0.501656 -15.928183 -3.167308 2.999707 -6.338825 -1e-06 0.0 -18.123444 3.648181 -4.905666 -4e-06 -0.0 -2e-06 6.969297 9.122222 6.742051 6.142749 1.66385 -60.788963 -173.633072 68.705574 -175.179001 -34.349968 5.001677 15.746611 2.243541 -5.255035 -3.180157 14.282886 -0.826594 6.952503 -3e-06 -12.6906 1e-06 16.466825 -17.071201 3.215093 1.665665 -1.955921 -2.878299 4.727797 -4.170586 4.993924 11.020521 3e-06 -1e-06 12.109048 -3.735714 -2.866783 1e-06 -0.0 -0.0 1.291984 -1.928548 -1.498089 14.800122 0.567468 3.865607 14.242566 -1.341735 -6.660655 19.631958 0.143926 -0.648244 49.250992 -1.192118 -6.129169 0.353028 -1.51115 -0.03194 20.222784 3.684308 2.316631 18.787266 3e-06 1e-06 10.751623 -0.479869 1.397907 -1e-06 -0.0 -0.0 3.273806 0.305947 -0.580111 21.486803 11.830369 2.266133 8.162926 1e-06 -1e-06 18.399076 -3.798985 -4.940574 3e-06 -0.0 -0.0 9.010419 11.966908 5.406501 -0.013175 -0.234381 10.42879 -9.862524 2.920217 -7.336449 1.605036 -2.021452 -0.878562 0.0 -0.0 2e-06 -10.330871 -9.814527 3.313822 -0.048227 0.091772 10.287489 11.019712 -5.672459 -5.248224 -1.430912 1.066708 -0.531631 0.0 0.0 -1e-06 
0.688068 0.0 -0.006057 0.0 0.263434 0.0 0.0 98.950333 0.0 0.179052 0.023299 -6.822506 0.130436 0.103338 1.418785 -0.440481 0.517866 -4.074965 -4.47498 -1.691567 7.970155 4.635477 0.359085 11.927899 0.083385 1.81745 -3.565386 0.26919 1.703521 -11.499175 7.7e-05 -2.2e-05 6e-06 -0.0023 0.032121 0.022048 0.608206 -3.718975 -10.577185 -0.613531 3.782386 -10.496912 -15.082644 -4.903022 10.902925 -55.123711 -6.94439 17.671589 -0.214013 -23.639524 0.073341 -1.727345 0.696821 -0.193257 -5.882107 9.861285 0.70259 -10.936872 -0.360575 7.156207 0.0 8.774824 0.0 -16.177692 17.93552 5.888373 -1.844032 2.498505 -2.507276 -10.163601 4.678946 4.621109 -20.976027 -3e-06 2e-06 -21.226286 2.451698 -3.594 1e-06 -6e-06 -0.0 -1.36268 2.240798 -0.746322 -21.334915 0.58491 3.008325 -13.821214 -3e-06 2e-06 -23.887175 -0.24908 -0.839483 -60.66555 2.433299 -1.378473 -0.294024 1.679687 0.833256 -14.218209 0.093215 1.300581 -34.212048 -0.287562 0.967172 -20.033211 0.964538 1.212844 0.0 -1e-06 -1e-06 -3.440389 0.788233 0.501656 -15.928185 -3.16731 2.999707 -6.338826 -2e-06 -1e-06 -18.123444 3.648183 -4.905669 -3e-06 0.0 -2e-06 7.58865 8.980177 7.065691 4.553017 2.193017 -58.724308 -174.145126 67.239754 -175.628708 -31.65155 5.081802 16.102739 2.243541 -5.255037 -3.180157 14.282888 -0.826594 6.952501 -2e-06 -12.690601 -1e-06 16.703424 -16.959938 3.115622 1.665666 -1.955922 -2.878299 4.727798 -4.170586 4.993922 11.020525 3e-06 -1e-06 12.109051 -3.735714 -2.866784 -0.0 0.0 -0.0 1.291985 -1.928549 -1.498089 14.800125 0.567469 3.865607 14.24257 -1.341736 -6.660657 19.631969 0.143925 -0.648245 49.564484 -1.222726 -6.110771 0.353029 -1.51115 -0.03194 20.222788 3.684308 2.316631 18.78727 4e-06 0.0 10.751625 -0.479871 1.397906 -2e-06 -0.0 -0.0 3.273806 0.305948 -0.58011 21.486809 11.830369 2.266133 8.162925 1e-06 0.0 18.399076 -3.798981 -4.940573 2e-06 -0.0 -1e-06 9.024042 12.061256 5.497865 -0.010623 -0.178452 10.251055 -9.985336 3.062134 -7.320357 1.606934 -2.04305 -0.963433 -0.0 -1e-06 2e-06 -10.276957 -9.698231 3.195338 -0.042608 0.103295 10.26304 10.905559 -5.659557 -5.146027 -1.429494 1.041884 -0.568088 -0.0 1e-06 -1e-06 
0.664282 0.0 0.009984 0.0 -0.044857 0.0 0.0 98.963402 0.0 0.161748 0.018821 -6.746387 0.201925 0.096752 1.380067 -0.415224 0.517938 -4.072782 -4.548809 -1.720399 7.997375 4.430799 0.451241 11.947321 0.112232 2.131306 -3.582676 0.217696 2.000037 -11.583938 7.7e-05 -2.2e-05 6e-06 0.000753 0.060249 0.023298 0.616745 -3.696736 -10.594753 -0.61649 3.816458 -10.51012 -15.282895 -4.935968 10.847256 -54.989315 -6.458269 17.681137 -0.204694 -23.221832 0.065631 -1.806042 0.797254 0.288006 -5.882113 9.861293 0.702592 -10.936881 -0.360575 7.156209 1e-06 8.774831 -1e-06 -16.230743 17.929138 5.833582 -1.844034 2.498506 -2.507279 -10.163611 4.678948 4.621113 -20.976044 -4e-06 2e-06 -21.226305 2.4517 -3.594003 2e-06 -6e-06 -1e-06 -1.362683 2.2408 -0.746325 -21.334936 0.584911 3.008324 -13.821227 -3e-06 0.0 -23.887192 -0.249078 -0.839483 -60.646751 2.374508 -1.374033 -0.294024 1.679688 0.833257 -14.218224 0.093215 1.300581 -34.212082 -0.287564 0.967167 -20.033232 0.964537 1.212843 -0.0 0.0 0.0 -3.440392 0.788234 0.501656 -15.928203 -3.16731 2.999711 -6.338832 -1e-06 0.0 -18.123468 3.648185 -4.905674 -4e-06 -0.0 -3e-06 8.043691 8.942132 7.3872 3.988098 3.033591 -56.962143 -175.099304 64.125984 -176.542145 -29.868578 6.755341 17.751373 2.243543 -5.255037 -3.180159 14.282896 -0.826593 6.952503 -4e-06 -12.690605 -0.0 16.844145 -16.87958 2.993963 1.665667 -1.955922 -2.878299 4.727801 -4.170586 4.993924 11.020534 4e-06 -2e-06 12.109058 -3.735714 -2.866785 -1e-06 0.0 0.0 1.291986 -1.92855 -1.498089 14.800136 0.567469 3.865608 14.242579 -1.341736 -6.66066 19.631979 0.143928 -0.648246 49.721748 -1.262295 -6.078982 0.353029 -1.51115 -0.031941 20.222801 3.684312 2.31663 18.787283 6e-06 -2e-06 10.751632 -0.479867 1.397906 -1e-06 -1e-06 -1e-06 3.273808 0.305949 -0.580111 21.486824 11.830377 2.266133 8.16293 2e-06 -2e-06 18.39909 -3.798982 -4.940578 3e-06 0.0 -2e-06 9.114066 12.170793 5.667471 -0.007508 -0.115856 10.038856 -10.167832 3.180985 -7.268235 1.606468 -2.041682 -1.025175 -0.0 0.0 2e-06 -10.186237 -9.583847 3.041486 -0.05171 0.114993 10.249629 10.793776 -5.582526 -5.038558 -1.42912 1.031218 -0.551446 0.0 0.0 -1e-06 
